<svg xmlns="http://www.w3.org/2000/svg" version="1.1" xmlns:xlink="http://www.w3.org/1999/xlink" xmlns:svgjs="http://svgjs.dev/svgjs" width="2000" height="232" viewBox="0 0 2000 232"><g transform="matrix(1,0,0,1,-1.2121212121212466,-0.8898314780715992)"><svg viewBox="0 0 396 46" data-background-color="#636365" preserveAspectRatio="xMidYMid meet" height="232" width="2000" xmlns="http://www.w3.org/2000/svg" xmlns:xlink="http://www.w3.org/1999/xlink"><g id="tight-bounds" transform="matrix(1,0,0,1,0.2400000000000091,0.17643210341074678)"><svg viewBox="0 0 395.52 45.647135793178485" height="45.647135793178485" width="395.52"><g><svg viewBox="0 0 501.8991507332145 57.924400000000006" height="45.647135793178485" width="395.52"><g><svg viewBox="0 0 501.8991507332145 57.924400000000006" height="57.924400000000006" width="501.8991507332145"><g id="textblocktransform"><svg viewBox="0 0 501.8991507332145 57.924400000000006" height="57.924400000000006" width="501.8991507332145" id="textblock"><g><svg viewBox="0 0 501.8991507332145 57.924400000000006" height="57.924400000000006" width="501.8991507332145"><g><svg><g></g><g></g></svg></g><g><svg><g><svg></svg></g><g></g></svg></g><g id="text-0"><svg viewBox="0 0 501.8991507332145 57.924400000000006" height="57.924400000000006" width="501.8991507332145"><g transform="matrix(1,0,0,1,0,11.487200000000001)"><svg width="45.80000000000001" viewBox="0 -34.95000076293945 45.79999923706055 34.95000076293945" height="34.95" data-palette-color="#d2d6dc"><path d="M0-2.15L4.85-2.15 4.85-34.95 10.75-34.95 10.75-2.15 15.6-2.15 15.6 0 0 0 0-2.15ZM33.65-2.15L45.8-2.15 45.8 0 15.6 0 15.6-2.15 27.75-2.15 27.75-29.55 17.15-29.55 17.15-34.95 44.25-34.95 44.25-29.55 33.65-29.55 33.65-2.15Z" opacity="1" transform="matrix(1,0,0,1,0,0)" fill="#d2d6dc" class="undefined-p-0"></path></svg></g><g><svg xmlns="http://www.w3.org/2000/svg" xmlns:xlink="http://www.w3.org/1999/xlink" version="1.1" x="59.475600000000014" y="0" viewBox="6.300000190734863 11.5 87.39999389648438 77" style="enable-background:new 0 0 100 100;" xml:space="preserve" height="57.924400000000006" width="65.74795073321454" class="icon-s-0" data-fill-palette-color="accent" id="s-0"><path d="M72.3 12.3L72.3 12.3 72.3 12.3l-0.4-0.8H28.2L6.3 50l21.8 38.5h43.7L93.7 50 72.3 12.3zM33.3 25.3L9.9 47.7l18.6-32.8L33.3 25.3zM70.7 14.8l6.4 35.7L36.9 25.8 70.7 14.8zM35.5 27.3l41 25.2-41 23.3V27.3zM77 54.5l-7.2 30.8-32.6-8.1L77 54.5zM33.5 75L9.9 50.5l23.6-22.7V75zM33.2 77.6l-4.6 7.7L11.5 55.1 33.2 77.6zM35 78.6l31.4 7.9H30.2L35 78.6zM79.3 53.3l11.6-2.5L72.1 84 79.3 53.3zM90.7 48.9l-11.4 2.5-5.9-33.1L90.7 48.9zM35 24.3l-5-10.8h38.2L35 24.3z" fill="#97978d" data-fill-palette-color="accent"></path></svg></g><g transform="matrix(1,0,0,1,138.89915073321455,10.6372)"><svg width="363" viewBox="0 -35.79999923706055 362.9800109863281 35.79999923706055" height="35.800000000000004" data-palette-color="#d2d6dc"><path d="M10.75-2.15L34.2-2.15 34.2 0 0 0 0-2.15 4.85-2.15 4.85-34.95 16.85-34.95Q24.8-34.95 28.45-31.9 32.1-28.85 32.1-22.5 32.1-16.15 28.38-13.2 24.65-10.25 16.95-10.25L16.95-10.25 10.75-10.25 10.75-2.15ZM17.6-15.6Q22.5-15.6 24.28-17.48 26.05-19.35 26.05-22.98 26.05-26.6 23.8-28.1 21.55-29.6 16.75-29.6L16.75-29.6 10.75-29.6 10.75-15.6 17.6-15.6ZM68.45-2.15L74.25-2.15 74.25 0 63.1 0 59.6-7.95 42.1-7.95 38.6 0 27.45 0 27.45-2.15 33.25-2.15 47.7-34.95 54-34.95 68.45-2.15ZM44.5-13.4L57.2-13.4 50.85-27.8 44.5-13.4ZM84.7-2.15L96.85-2.15 96.85 0 66.65 0 66.65-2.15 78.8-2.15 78.8-29.55 68.2-29.55 68.2-34.95 95.3-34.95 95.3-29.55 84.7-29.55 84.7-2.15ZM135.69 0L135.69-2.15 130.84-2.15 130.84-34.95 124.94-34.95 124.94-19.8 107.59-19.8 107.59-34.95 101.69-34.95 101.69 0 107.59 0 107.59-14.3 124.94-14.3 124.94 0 135.69 0ZM96.84-2.15L101.69-2.15 101.69 0 96.84 0 96.84-2.15ZM146.44-2.15L165.89-2.15 165.89 0 135.69 0 135.69-2.15 140.54-2.15 140.54-34.95 163.84-34.95 163.79-29.45 146.44-29.45 146.44-19.85 161.94-19.85 161.94-14.4 146.44-14.4 146.44-2.15ZM165.89-2.15L170.74-2.15 170.74-34.95 176.64-34.95 176.64-2.15 181.49-2.15 181.49 0 165.89 0 165.89-2.15ZM181.49-2.15L186.34-2.15 186.34-34.95 192.24-34.95 212.54-8.85 212.54-34.95 218.44-34.95 218.44-2.15 223.29-2.15 223.29 0 212.04 0 192.24-25.5 192.24 0 181.49 0 181.49-2.15ZM250.83-2.15L262.38-2.15 262.38 0 223.28 0 223.28-2.15 228.13-2.15 228.13-34.95 240.13-34.95Q249.53-34.95 254.58-30.38 259.63-25.8 259.63-17.5L259.63-17.5Q259.63-6.35 250.83-2.15L250.83-2.15ZM253.68-17.5L253.68-17.5Q253.68-29.5 239.93-29.5L239.93-29.5 234.03-29.5 234.03-5.55 240.58-5.55Q246.93-5.55 250.31-8.58 253.68-11.6 253.68-17.5ZM262.38-2.15L267.23-2.15 267.23-34.95 291.78-34.95 291.78-29.4 273.13-29.4 273.13-20.15 289.88-20.15 289.88-14.9 273.13-14.9 273.13-5.55 292.38-5.55 292.38-2.15 297.23-2.15 297.23 0 262.38 0 262.38-2.15ZM327.88-2.15L332.73-2.15 332.73 0 321.93 0 313.58-11.75 305.83-11.75 305.83 0 295.08 0 295.08-2.15 299.93-2.15 299.93-34.95 312.93-34.95Q320.93-34.95 324.38-32.25 327.83-29.55 327.83-23.6L327.83-23.6Q327.83-14.95 320.28-12.7L320.28-12.7 327.88-2.15ZM313.18-17.1Q318.18-17.1 319.98-18.65 321.78-20.2 321.78-23.63 321.78-27.05 319.93-28.33 318.08-29.6 313.33-29.6L313.33-29.6 305.83-29.6 305.83-17.1 313.18-17.1ZM356.73-2.15L362.98-2.15 362.98 0 331.48 0 331.48-2.15 337.88-2.15Q335.48-3.4 333.48-5.25L333.48-5.25 337.18-9.7Q342.48-5.1 348.18-5.1L348.18-5.1Q351.03-5.1 352.7-6.33 354.38-7.55 354.38-9.58 354.38-11.6 352.8-12.73 351.23-13.85 347.38-14.78 343.53-15.7 341.53-16.48 339.53-17.25 337.98-18.5L337.98-18.5Q334.88-20.85 334.88-25.7 334.88-30.55 338.4-33.18 341.93-35.8 347.13-35.8L347.13-35.8Q350.48-35.8 353.78-34.7 357.08-33.6 359.48-31.6L359.48-31.6 356.33-27.15Q354.78-28.55 352.13-29.45 349.48-30.35 346.9-30.35 344.33-30.35 342.68-29.3 341.03-28.25 341.03-26.13 341.03-24 342.68-22.88 344.33-21.75 349.7-20.45 355.08-19.15 357.8-16.8 360.53-14.45 360.53-10.2L360.53-10.2Q360.53-5.05 356.73-2.15L356.73-2.15Z" opacity="1" transform="matrix(1,0,0,1,0,0)" fill="#d2d6dc" class="undefined-p-1"></path></svg></g></svg></g></svg></g></svg></g></svg></g><g></g></svg></g><defs></defs></svg><rect width="395.52" height="45.647135793178485" fill="none" stroke="none" visibility="hidden"></rect></g></svg></g></svg>